<?xml version="1.0" standalone="no"?>
<!DOCTYPE svg PUBLIC "-//W3C//DTD SVG 20010904//EN"
 "http://www.w3.org/TR/2001/REC-SVG-20010904/DTD/svg10.dtd">
<svg version="1.0" xmlns="http://www.w3.org/2000/svg"
 width="1080.000000pt" height="1080.000000pt" viewBox="0 0 1080.000000 1080.000000"
 preserveAspectRatio="xMidYMid meet">
<metadata>
Created by potrace 1.14, written by Peter Selinger 2001-2017
</metadata>
<g transform="translate(0.000000,1080.000000) scale(0.100000,-0.100000)"
fill="#000000" stroke="none">
<path d="M4949 9756 c-2 -2 -30 -6 -63 -10 -63 -6 -128 -21 -161 -36 -36 -16
-109 -38 -165 -48 -94 -18 -127 -21 -422 -37 -58 -3 -117 -8 -130 -10 -12 -2
-45 -6 -73 -10 -77 -9 -144 -31 -277 -92 -157 -70 -220 -94 -578 -215 -596
-202 -832 -310 -1075 -497 -99 -75 -203 -181 -226 -227 -29 -61 -82 -103 -218
-174 -128 -66 -145 -81 -297 -260 -54 -63 -101 -117 -104 -120 -18 -16 -125
-149 -163 -202 -88 -125 -136 -234 -157 -355 -7 -39 -21 -67 -59 -115 -41 -53
-141 -210 -141 -222 0 -2 -10 -25 -22 -52 -11 -27 -19 -49 -17 -50 2 0 -1 -7
-7 -15 -24 -28 -87 -278 -99 -389 -9 -85 -20 -115 -56 -155 -99 -108 -220
-309 -264 -440 -50 -146 -69 -366 -39 -463 27 -91 45 -217 59 -427 14 -204 36
-307 90 -420 33 -68 33 -71 21 -125 -12 -55 -14 -153 -3 -220 3 -19 9 -62 12
-95 9 -77 123 -422 181 -544 90 -191 210 -336 347 -419 54 -33 55 -33 262 -57
28 -3 61 -8 75 -10 40 -8 62 -12 113 -19 27 -4 57 -9 67 -11 10 -2 67 -11 126
-20 60 -9 120 -18 134 -20 125 -20 294 -24 393 -11 125 16 367 101 569 201 31
15 45 5 53 -35 43 -221 194 -435 370 -522 41 -21 70 -26 160 -30 151 -7 254
-43 470 -163 228 -126 405 -206 495 -222 14 -2 41 -8 60 -13 117 -30 463 -32
605 -4 11 2 45 8 75 14 30 5 68 12 84 15 56 11 282 75 355 100 41 14 78 25 82
25 22 0 122 -123 217 -264 59 -87 140 -196 182 -241 41 -45 89 -102 105 -126
81 -116 164 -239 195 -289 83 -133 163 -327 177 -427 8 -64 35 -101 78 -109
41 -7 108 3 100 16 -3 5 -35 96 -71 202 -36 106 -74 213 -86 238 -38 85 -142
244 -220 335 -9 11 -32 39 -50 62 -18 22 -75 92 -126 155 -52 62 -101 122
-110 133 -66 81 -182 285 -198 350 -5 20 -1 27 17 34 30 11 110 -12 124 -35
68 -114 202 -236 354 -326 64 -38 97 -64 129 -107 23 -31 59 -74 80 -97 20
-23 66 -74 102 -114 36 -41 74 -83 85 -95 25 -26 100 -110 140 -155 137 -158
286 -408 300 -505 11 -75 56 -92 191 -71 l52 8 -55 116 c-100 214 -142 296
-178 350 -19 30 -35 55 -35 57 0 4 -47 59 -98 116 -24 26 -39 50 -34 53 5 3
53 -10 107 -29 53 -18 116 -37 139 -41 22 -4 43 -8 46 -9 234 -54 562 -48 835
15 28 6 57 13 65 15 38 9 162 50 227 76 65 25 141 67 311 168 29 17 55 31 57
31 10 0 249 148 332 206 229 160 375 347 428 552 8 35 31 84 49 110 52 72 82
139 126 279 23 70 57 178 76 238 20 61 52 141 72 180 50 95 145 188 247 243
203 108 388 297 513 523 11 20 25 45 31 55 6 11 20 42 32 69 81 185 113 278
124 355 3 25 11 74 16 109 5 35 12 89 15 120 3 31 7 65 9 76 26 126 26 681 0
757 -2 7 -6 27 -8 43 -29 198 -144 437 -276 572 -23 23 -41 48 -41 56 0 28
-64 205 -103 287 -52 109 -108 196 -193 301 -70 87 -206 223 -261 261 -20 14
-39 40 -49 68 -36 96 -106 226 -172 320 -133 188 -369 403 -601 545 -35 22
-69 48 -76 60 -127 213 -257 335 -476 447 -115 59 -150 73 -331 138 -104 38
-225 95 -378 179 -280 155 -434 215 -599 237 -31 4 -78 20 -110 38 -58 33 -73
40 -218 107 -94 43 -270 104 -328 113 -19 3 -56 11 -82 17 -27 6 -154 12 -283
14 -129 2 -251 6 -270 8 -19 3 -64 9 -100 12 -36 3 -78 8 -95 10 -26 3 -55 7
-175 21 -43 5 -436 14 -441 10z"/>
</g>
</svg>
